# xmcd CD Database Entry
#
# Track frame offsets:
# 150
# 21629
# 23814
# 29124
# 34264
# 43764
# 56446
# 64826
# 80598
# 87421
# 96554
# 100271
# 113576
# 128453
# 141483
# 154180
# 167530
# 174940
# 180002
# 185764
# 197149
# 209191
# 210979
# 213933
# 221278
# 233517
# 236952
# 241391
#
# Disc length: 3415 seconds
#
# Revision: 1
# Processed by: cddbd v1.4PL0 Copyright (c) Steve Scherf et al.
# Submitted via: tcd 2.0b
#
DISCID=930d551c
DTITLE=Nem ismert
DYEAR=1900
DGENRE=
TTITLE0=1. sáv
TTITLE1=2. sáv
TTITLE2=3. sáv
TTITLE3=4. sáv
TTITLE4=5. sáv
TTITLE5=6. sáv
TTITLE6=7. sáv
TTITLE7=8. sáv
TTITLE8=9. sáv
TTITLE9=10. sáv
TTITLE10=11. sáv
TTITLE11=12. sáv
TTITLE12=13. sáv
TTITLE13=14. sáv
TTITLE14=15. sáv
TTITLE15=16. sáv
TTITLE16=17. sáv
TTITLE17=18. sáv
TTITLE18=19. sáv
TTITLE19=20. sáv
TTITLE20=21. sáv
TTITLE21=22. sáv
TTITLE22=23. sáv
TTITLE23=24. sáv
TTITLE24=25. sáv
TTITLE25=26. sáv
TTITLE26=27. sáv
TTITLE27=28. sáv
EXTD=
EXTT0=
EXTT1=
EXTT2=
EXTT3=
EXTT4=
EXTT5=
EXTT6=
EXTT7=
EXTT8=
EXTT9=
EXTT10=
EXTT11=
EXTT12=
EXTT13=
EXTT14=
EXTT15=
EXTT16=
EXTT17=
EXTT18=
EXTT19=
EXTT20=
EXTT21=
EXTT22=
EXTT23=
EXTT24=
EXTT25=
EXTT26=
EXTT27=
PLAYORDER=
